<svg width="225" height="252" viewBox="0 0 225 252" fill="none" xmlns="http://www.w3.org/2000/svg">
<path fill-rule="evenodd" clip-rule="evenodd" d="M37.0272 0.93136C37.0272 84.2644 37.0272 167.598 37.0272 250.931C27.5342 252.016 18.5342 250.516 10.0272 246.431C5.2192 242.642 2.0522 237.809 0.527197 231.931C0.360197 196.598 0.194197 161.264 0.0271972 125.931C-0.126803 89.2194 0.373197 52.5524 1.5272 15.9314C9.6752 2.74246 21.5082 -2.25754 37.0272 0.93136Z" fill="#BF360C"/>
<path fill-rule="evenodd" clip-rule="evenodd" d="M37.0272 0.931365C92.3612 0.764665 147.695 0.931365 203.027 1.43136C213.68 3.41996 220.513 9.58666 223.527 19.9314C224.194 90.5984 224.194 161.264 223.527 231.931C220.505 242.285 213.672 248.452 203.027 250.431C147.695 250.931 92.3612 251.098 37.0272 250.931C37.0272 167.598 37.0272 84.2644 37.0272 0.931365Z" fill="#FE6F42"/>
<path fill-rule="evenodd" clip-rule="evenodd" d="M118.027 75.9314C132.27 74.4654 142.436 80.1324 148.527 92.9314C151.855 109.789 145.355 120.623 129.027 125.431C114.559 126.946 105.059 120.779 100.527 106.931C98.0712 91.8384 103.904 81.5044 118.027 75.9314Z" fill="#AB300B"/>
<path fill-rule="evenodd" clip-rule="evenodd" d="M113.027 138.931C136.127 135.45 154.293 143.116 167.527 161.931C168.026 166.586 168.193 171.252 168.027 175.931C139.027 175.931 110.027 175.931 81.0272 175.931C80.8612 171.252 81.0282 166.586 81.5272 161.931C89.1322 150.22 99.6322 142.553 113.027 138.931Z" fill="#AB300B"/>
</svg>
